
Complete name                    : Ashlynn Brooke - Pick Up Chicks POV - Full Scene01.mp4
Format                           : MPEG-4
Format profile                   : Base Media
Codec ID                         : isom
File size                        : 342 MiB
Duration                         : 41mn 21s
Overall bit rate                 : 1 157 Kbps
Movie name                       : Ashlynn Brooke - Pick Up Chicks POV - Full Scene01
Encoded date                     : UTC 2009-07-24 05:18:51
Tagged date                      : UTC 2009-07-24 05:18:51
Writing application              : Lavf52.31.0

Video
ID                               : 1
Format                           : AVC
Format/Info                      : Advanced Video Codec
Format profile                   : Baseline@L2.1
Format settings, CABAC           : No
Format settings, ReFrames        : 3 frames
Codec ID                         : avc1
Codec ID/Info                    : Advanced Video Coding
Duration                         : 41mn 21s
Bit rate mode                    : Variable
Bit rate                         : 1 024 Kbps
Width                            : 480 pixels
Height                           : 320 pixels
Display aspect ratio             : 3:2
Frame rate mode                  : Constant
Frame rate                       : 29.970 fps
Color space                      : YUV
Chroma subsampling               : 4:2:0
Bit depth                        : 8 bits
Scan type                        : Progressive
Bits/(Pixel*Frame)               : 0.222
Stream size                      : 303 MiB (89%)
Encoded date                     : UTC 2009-07-24 05:18:51
Tagged date                      : UTC 2009-07-24 05:18:51

Audio
ID                               : 2
Format                           : AAC
Format/Info                      : Advanced Audio Codec
Format profile                   : LC
Codec ID                         : 40
Duration                         : 41mn 21s
Bit rate mode                    : Variable
Bit rate                         : 128 Kbps
Channel(s)                       : 2 channels
Channel positions                : Front: L R
Sampling rate                    : 48.0 KHz
Compression mode                 : Lossy
Stream size                      : 37.8 MiB (11%)
Encoded date                     : UTC 2009-07-24 05:18:51
Tagged date                      : UTC 2009-07-24 05:18:51

